<svg xmlns="http://www.w3.org/2000/svg" width="28" height="28" aria-hidden="true">
    <path fill="#484848" fill-rule="evenodd" d="M18.723 18.694c-1.293 1.292-2.865 1.937-4.718 1.937h-.045c-1.853 0-3.426-.645-4.718-1.937-1.293-1.29-1.939-2.862-1.939-4.713 0-1.85.646-3.433 1.94-4.747 1.291-1.312 2.864-1.97 4.717-1.97l.022.003.023-.002c1.853 0 3.425.657 4.718 1.97 1.293 1.313 1.939 2.895 1.939 4.746 0 1.851-.646 3.423-1.939 4.713m8.337-6.844c-.498 0-1.123-.034-1.39-.076l-.194-.15-.194-.151c-.088-.254-.623-1.855-.872-2.346a26.612 26.612 0 01-.636-1.335l.022-.236.021-.237c.148-.207.56-.682.915-1.055.357-.373-.036-1.346-.871-2.162-.836-.818-1.795-1.21-2.133-.873-.337.338-.788.74-1.002.894l-.258.043-.26.043c-.247-.095-1.778-.834-2.293-1.012a16.476 16.476 0 01-1.4-.549l-.151-.193-.15-.194c-.042-.231-.076-.84-.076-1.356 0-.516-.96-.922-2.133-.904h-.045c-1.174-.018-2.133.388-2.133.904 0 .515-.034 1.125-.076 1.356l-.15.194-.15.193c-.256.124-.886.371-1.402.549-.515.178-2.045.917-2.294 1.012l-.258-.043-.258-.043c-.213-.154-.665-.556-1.002-.894-.337-.337-1.298.055-2.133.873-.835.816-1.227 1.789-.872 2.162.356.373.768.848.915 1.055l.022.237.021.236c-.1.243-.387.844-.635 1.335-.249.491-.784 2.092-.872 2.346l-.194.151-.194.15c-.267.042-.892.076-1.39.076-.498 0-.905.959-.905 2.131 0 1.172.407 2.13.905 2.13.498 0 1.123.034 1.39.076l.194.15.194.151c.088.255.306.894.484 1.42.178.527.918 2.023 1.013 2.271l-.043.258-.044.26c-.118.212-.505.663-.861 1-.355.337.023 1.296.84 2.131.817.834 1.777 1.242 2.132.904.355-.337.86-.758 1.12-.937h.517c.202.071.77.333 1.261.582.492.248 2.093.812 2.348.936l.15.194.151.194c.042.23.076.826.076 1.323 0 .498.96.92 2.133.937l.022-.001h.023c1.173-.017 2.133-.438 2.133-.936 0-.497.034-1.092.076-1.323l.15-.194.15-.194c.256-.124 1.858-.688 2.349-.936.492-.249 1.059-.51 1.26-.582h.517c.26.179.765.6 1.12.937.356.338 1.315-.07 2.133-.904.817-.835 1.196-1.794.84-2.13-.356-.338-.743-.789-.862-1.002l-.043-.259-.043-.258c.096-.248.835-1.744 1.013-2.27.178-.527.396-1.166.484-1.42l.194-.152.194-.15c.267-.042.892-.075 1.39-.075.498 0 .904-.96.904-2.13 0-1.173-.406-2.132-.904-2.132"></path>
</svg>